<svg width="21" height="12" viewBox="0 0 21 12" fill="none" xmlns="http://www.w3.org/2000/svg">
<path d="M8.81775 7.4841e-05C6.8763 7.4841e-05 6.07683 1.92028 6.07683 1.92028C5.89605 1.56437 5.66502 1.24039 5.3924 0.960514C4.81641 0.345765 4.04354 0.000174568 3.24583 0.000747934C1.30357 0.000747934 -0.263892 1.7185 0.149618 4.28903C0.562969 6.85971 2.9836 8.97867 6.29656 11.2826C7.8982 10.1322 9.27958 9.02536 10.2984 7.88678C11.3155 6.74424 11.9683 5.57462 12.1163 4.28754C12.408 1.71761 10.76 0 8.81766 0L8.81775 7.4841e-05Z" fill="#FF6757"/>
<path d="M16.7177 7.4841e-05C14.7763 7.4841e-05 13.9768 1.92028 13.9768 1.92028C13.796 1.56437 13.565 1.24039 13.2924 0.960514C12.7164 0.345765 11.9435 0.000174568 11.1458 0.000747934C9.20357 0.000747934 7.6361 1.7185 8.04961 4.28903C8.46296 6.85971 10.8836 8.97867 14.1966 11.2826C15.7982 10.1322 17.1796 9.02536 18.1984 7.88678C19.2155 6.74424 19.8683 5.57462 20.0163 4.28754C20.308 1.71761 18.66 0 16.7177 0L16.7177 7.4841e-05Z" fill="#FF6757"/>
</svg>
