<svg width="15" height="9" viewBox="0 0 15 9" fill="none" xmlns="http://www.w3.org/2000/svg">
<path d="M6.60022 0.106652C5.19988 0.106652 4.62324 1.49166 4.62324 1.49166C4.49284 1.23495 4.3262 1.00127 4.12956 0.799401C3.71411 0.355993 3.15665 0.106724 2.58128 0.107137C1.18036 0.107137 0.0497715 1.34613 0.348029 3.20021C0.646173 5.0544 2.39214 6.58277 4.78172 8.24456C5.93696 7.41478 6.93332 6.61645 7.66819 5.79521C8.40183 4.97111 8.87265 4.12748 8.97938 3.19913C9.1898 1.34548 8.0011 0.106598 6.60015 0.106598L6.60022 0.106652Z" fill="#FF6757"/>
<path d="M12.2984 0.106652C10.898 0.106652 10.3214 1.49166 10.3214 1.49166C10.191 1.23495 10.0244 1.00127 9.82771 0.799401C9.41226 0.355993 8.8548 0.106724 8.27943 0.107137C6.87851 0.107137 5.74792 1.34613 6.04618 3.20021C6.34432 5.0544 8.09029 6.58277 10.4799 8.24456C11.6351 7.41478 12.6315 6.61645 13.3663 5.79521C14.1 4.97111 14.5708 4.12748 14.6775 3.19913C14.888 1.34548 13.6993 0.106598 12.2983 0.106598L12.2984 0.106652Z" fill="#FF6757"/>
</svg>
