<svg width="43" height="27" viewBox="0 0 43 27" fill="none" xmlns="http://www.w3.org/2000/svg">
<path d="M16.3429 3.20062L16.3807 3.19167C19.5256 2.47036 22.9352 4.59891 23.472 9.06831C23.7377 11.3087 23.1061 13.5862 21.7912 16.023C20.5128 18.3772 18.6138 20.8371 16.3323 23.4797C13.0116 22.1608 10.122 20.8367 7.83456 19.326C5.47353 17.7667 3.79043 16.0323 2.92451 13.9375L2.9245 13.9375C1.18613 9.73284 3.17133 6.32126 6.32664 5.574L6.32699 5.57392C7.6173 5.26736 9.00907 5.52782 10.1936 6.31304L10.1935 6.31313L10.202 6.31851C10.7661 6.67691 11.2801 7.1262 11.7238 7.65029L12.4298 8.48415L12.6027 7.42589L12.6027 7.42559L12.6027 7.42548L12.6028 7.42531L12.6028 7.42495L12.6036 7.42068L12.6082 7.39576C12.6127 7.37254 12.62 7.33641 12.6307 7.28901C12.6521 7.19413 12.6869 7.05456 12.7393 6.88317C12.8444 6.53937 13.0185 6.07323 13.2932 5.58478C13.8426 4.60757 14.7745 3.57204 16.3429 3.20062Z" fill="#FF6757" stroke="white"></path>
<path d="M36.5224 5.66314L36.56 5.67314C39.6721 6.52498 41.6695 10.013 40.0287 14.2048C39.2032 16.3045 37.5696 18.0124 35.2586 19.5375C33.0188 21.0073 30.1822 22.2765 26.9222 23.5258C24.6201 20.7932 22.7003 18.26 21.3994 15.8471C20.0565 13.3566 19.3939 11.0324 19.6217 8.77711L19.6217 8.77708C20.0786 4.25027 23.4412 2.18326 26.5747 3.01715L26.5751 3.01724C27.8569 3.35739 28.96 4.24511 29.6323 5.49718L29.6322 5.49722L29.6372 5.50598C29.9647 6.08856 30.2051 6.72749 30.3481 7.39912L30.5758 8.46771L31.2286 7.61707L31.2288 7.61683L31.2289 7.61674L31.229 7.61661L31.2292 7.61631L31.2319 7.61291L31.2478 7.59315C31.2627 7.5748 31.2862 7.54643 31.3181 7.50973C31.3818 7.43625 31.4785 7.32975 31.6057 7.20351C31.8609 6.9503 32.2348 6.62192 32.7078 6.32145C33.6541 5.72031 34.9649 5.24866 36.5224 5.66314Z" fill="#FF6757" stroke="white"></path>
</svg>
