<svg width="29" height="28" viewBox="0 0 29 28" fill="none" xmlns="http://www.w3.org/2000/svg">
<path d="M23.9148 14.706C23.7853 14.5577 23.6754 14.3959 23.5848 14.225C23.5403 18.817 19.7915 22.5393 15.1892 22.5393C10.5593 22.5393 6.79252 18.7725 6.79252 14.1426C6.79252 9.51267 10.5593 5.74589 15.1892 5.74589C19.1721 5.74589 22.5161 8.53359 23.373 12.2601L24.1334 6.60749L24.1505 6.48039C21.9853 3.95173 18.7714 2.34631 15.1892 2.34631C12.3945 2.34631 9.82404 3.32387 7.80071 4.95422V5.07627V5.18434V7.57858V7.67361C7.80071 9.27285 6.97184 10.7329 5.66028 11.5672V20.9259V21.0872C7.80775 24.0258 11.279 25.9386 15.1892 25.9386C19.2981 25.9386 22.9224 23.8265 25.0352 20.6313V20.4585V15.4457C24.6065 15.3062 24.2181 15.0529 23.9148 14.706Z" fill="#FF6757"></path>
<path d="M15.1891 7.17294C11.3461 7.17294 8.21942 10.2995 8.21942 14.1427C8.21942 17.9858 11.346 21.1124 15.1891 21.1124C19.0323 21.1124 22.1589 17.9858 22.1589 14.1427C22.1589 10.2995 19.0322 7.17294 15.1891 7.17294Z" fill="#FF6757"></path>
<path d="M28.5232 1.09961C28.5232 0.4923 28.0309 0 27.4236 0C26.873 0 26.4072 0.407253 26.3339 0.953016L24.7271 12.8965C24.6848 13.2109 24.7804 13.5282 24.9891 13.767C25.1979 14.0058 25.4996 14.1426 25.8168 14.1426H26.462V26.9536C26.462 27.5315 26.9305 28 27.5084 28C28.0864 28 28.5549 27.5315 28.5549 26.9536L28.5232 1.09961Z" fill="#FF6757"></path>
<path d="M6.37373 1.33179C6.37373 0.937669 6.05438 0.618317 5.66026 0.618317C5.26613 0.618317 4.94678 0.937669 4.94678 1.33179V5.27961H3.90034V1.33179C3.90034 0.937669 3.58099 0.618317 3.18687 0.618317C2.79274 0.618317 2.47339 0.937669 2.47339 1.33179V5.27961H1.42696V1.33179C1.42696 0.937669 1.1076 0.618317 0.713478 0.618317C0.319353 0.618317 0 0.937669 0 1.33179V7.76888C0 9.15959 0.895842 10.3443 2.14043 10.7784V26.9535C2.14043 27.5315 2.60895 28 3.18687 28C3.76478 28 4.2333 27.5315 4.2333 26.9535V10.7784C5.47789 10.3443 6.37373 9.15959 6.37373 7.76888V1.33179Z" fill="#FF6757"></path>
</svg>
