<svg width="10" height="10" viewBox="0 0 10 10" fill="none" xmlns="http://www.w3.org/2000/svg">
<path d="M0 7.28622C0.633584 7.28622 1.26717 7.28622 1.90075 7.28622C1.39388 6.93774 1.10877 6.36752 1.10877 5.76561V2.62937C3.23128 2.62937 5.35379 2.62937 7.47629 2.62937V3.64311H8.33163C9.78887 3.64311 9.78887 5.82897 8.33163 5.82897H7.47629C7.44461 6.3992 7.1595 6.93774 6.68431 7.28622H8.58506V7.72972H7.85644C7.7614 8.45835 7.12782 9.02857 6.3992 9.02857H2.21754C1.45724 9.02857 0.823659 8.45835 0.728622 7.72972H0V7.28622ZM3.83318 0.348471C3.13624 0.887018 5.10035 1.86907 3.54807 2.50266L3.38967 2.12251C4.40341 1.679 2.4393 0.823659 3.57975 0L3.83318 0.348471ZM5.03699 0.348471C4.34005 0.887018 6.30416 1.86907 4.75188 2.50266L4.59348 2.12251C5.6389 1.679 3.64311 0.823659 4.81524 0L5.03699 0.348471ZM7.47629 4.05494V5.41714H8.33163C9.21865 5.41714 9.21865 4.05494 8.33163 4.05494H7.47629Z" fill="#CB4141"></path>
</svg>
