<svg width="9" height="17" viewBox="0 0 9 17" fill="none" xmlns="http://www.w3.org/2000/svg">
<path d="M8.88965 8.14806C8.87931 7.88325 8.77029 7.57711 8.58867 7.3841L1.92195 0.347013C1.53262 -0.114148 0.783914 -0.104842 0.346278 0.310586C-0.0913706 0.726277 -0.127284 1.46205 0.313209 1.87462L5.19764 7.03676C4.63273 6.43973 5.88965 7.53446 5.88965 8.14806C5.88965 8.76167 4.38965 9.79639 5.19764 9.25913L0.313209 14.4213C-0.127284 14.8339 -0.0911138 15.573 0.346536 15.9887C0.784184 16.4044 1.54377 16.4062 1.92221 15.9492L8.58893 8.91206C8.79173 8.6966 8.88655 8.44518 8.88965 8.14806Z" fill="white"></path>
</svg>
